<mxfile host="app.diagrams.net" modified="2021-08-04T15:53:25.083Z" agent="5.0 (Macintosh; Intel Mac OS X 10_15_7) AppleWebKit/605.1.15 (KHTML, like Gecko) Version/14.1.1 Safari/605.1.15" etag="wQHStXXC4FHkzlhnc9NN" version="14.9.4" type="github">
  <diagram id="6_EzaH60r4s2YtEv9FGz" name="第 1 页">
    <mxGraphModel dx="946" dy="501" grid="1" gridSize="10" guides="1" tooltips="1" connect="1" arrows="1" fold="1" page="1" pageScale="1" pageWidth="827" pageHeight="1169" math="0" shadow="0">
      <root>
        <mxCell id="0" />
        <mxCell id="1" parent="0" />
        <mxCell id="DNKRB5grRHmvCpaJHq7s-4" value="" style="rounded=1;whiteSpace=wrap;html=1;fontSize=16;fillColor=#f9f7ed;strokeColor=none;" vertex="1" parent="1">
          <mxGeometry x="90" y="120" width="180" height="330" as="geometry" />
        </mxCell>
        <mxCell id="DNKRB5grRHmvCpaJHq7s-1" value="脏读" style="rounded=0;whiteSpace=wrap;html=1;fontSize=16;fillColor=#ffff88;strokeColor=#36393d;" vertex="1" parent="1">
          <mxGeometry x="120" y="160" width="120" height="60" as="geometry" />
        </mxCell>
        <mxCell id="DNKRB5grRHmvCpaJHq7s-2" value="不可重复读" style="rounded=0;whiteSpace=wrap;html=1;fontSize=16;fillColor=#ffff88;strokeColor=#36393d;" vertex="1" parent="1">
          <mxGeometry x="120" y="260" width="120" height="60" as="geometry" />
        </mxCell>
        <mxCell id="DNKRB5grRHmvCpaJHq7s-3" value="幻读" style="rounded=0;whiteSpace=wrap;html=1;fontSize=16;fillColor=#ffff88;strokeColor=#36393d;" vertex="1" parent="1">
          <mxGeometry x="120" y="360" width="120" height="60" as="geometry" />
        </mxCell>
        <mxCell id="DNKRB5grRHmvCpaJHq7s-5" value="读未提交" style="text;html=1;align=center;verticalAlign=middle;resizable=0;points=[];autosize=1;strokeColor=none;fontSize=16;" vertex="1" parent="1">
          <mxGeometry x="140" y="460" width="80" height="20" as="geometry" />
        </mxCell>
        <mxCell id="DNKRB5grRHmvCpaJHq7s-6" value="" style="rounded=1;whiteSpace=wrap;html=1;fontSize=16;fillColor=#f9f7ed;strokeColor=none;" vertex="1" parent="1">
          <mxGeometry x="310" y="120" width="180" height="330" as="geometry" />
        </mxCell>
        <mxCell id="DNKRB5grRHmvCpaJHq7s-8" value="不可重复读" style="rounded=0;whiteSpace=wrap;html=1;fontSize=16;fillColor=#ffff88;strokeColor=#36393d;" vertex="1" parent="1">
          <mxGeometry x="340" y="260" width="120" height="60" as="geometry" />
        </mxCell>
        <mxCell id="DNKRB5grRHmvCpaJHq7s-9" value="幻读" style="rounded=0;whiteSpace=wrap;html=1;fontSize=16;fillColor=#ffff88;strokeColor=#36393d;" vertex="1" parent="1">
          <mxGeometry x="340" y="360" width="120" height="60" as="geometry" />
        </mxCell>
        <mxCell id="DNKRB5grRHmvCpaJHq7s-10" value="读已提交" style="text;html=1;align=center;verticalAlign=middle;resizable=0;points=[];autosize=1;strokeColor=none;fontSize=16;" vertex="1" parent="1">
          <mxGeometry x="360" y="460" width="80" height="20" as="geometry" />
        </mxCell>
        <mxCell id="DNKRB5grRHmvCpaJHq7s-11" value="" style="rounded=1;whiteSpace=wrap;html=1;fontSize=16;fillColor=#f9f7ed;strokeColor=none;" vertex="1" parent="1">
          <mxGeometry x="530" y="120" width="180" height="330" as="geometry" />
        </mxCell>
        <mxCell id="DNKRB5grRHmvCpaJHq7s-14" value="幻读" style="rounded=0;whiteSpace=wrap;html=1;fontSize=16;fillColor=#ffff88;strokeColor=#36393d;" vertex="1" parent="1">
          <mxGeometry x="560" y="360" width="120" height="60" as="geometry" />
        </mxCell>
        <mxCell id="DNKRB5grRHmvCpaJHq7s-15" value="可重复读" style="text;html=1;align=center;verticalAlign=middle;resizable=0;points=[];autosize=1;strokeColor=none;fontSize=16;" vertex="1" parent="1">
          <mxGeometry x="580" y="460" width="80" height="20" as="geometry" />
        </mxCell>
        <mxCell id="DNKRB5grRHmvCpaJHq7s-16" value="" style="rounded=1;whiteSpace=wrap;html=1;fontSize=16;fillColor=#f9f7ed;strokeColor=none;" vertex="1" parent="1">
          <mxGeometry x="750" y="120" width="180" height="330" as="geometry" />
        </mxCell>
        <mxCell id="DNKRB5grRHmvCpaJHq7s-19" value="串行化" style="text;html=1;align=center;verticalAlign=middle;resizable=0;points=[];autosize=1;strokeColor=none;fontSize=16;" vertex="1" parent="1">
          <mxGeometry x="810" y="460" width="60" height="20" as="geometry" />
        </mxCell>
      </root>
    </mxGraphModel>
  </diagram>
</mxfile>
